<svg version="1.1" xmlns="http://www.w3.org/2000/svg" viewBox="0 0 680.0123201655897 404.2550677503609" width="2040.036960496769" height="1212.7652032510828">
  <!-- svg-source:excalidraw -->
  
  <defs>
    <style class="style-fonts">
      @font-face {
        font-family: "Virgil";
        src: url("https://excalidraw.com/Virgil.woff2");
      }
      @font-face {
        font-family: "Cascadia";
        src: url("https://excalidraw.com/Cascadia.woff2");
      }
      @font-face {
        font-family: "Assistant";
        src: url("https://app.excalidraw.com//dist/excalidraw-assets/Assistant-Regular.woff2");
      }
    </style>
    
  </defs>
  <g stroke-linecap="round" transform="translate(21.222881076106205 10.000000003485638) rotate(0 39.595957131572504 43.811027053090584)"><path d="M79.19 43.81 C79.19 45.89, 79.06 47.99, 78.79 50.05 C78.52 52.1, 78.12 54.16, 77.59 56.15 C77.06 58.15, 76.39 60.12, 75.61 62.01 C74.83 63.9, 73.92 65.75, 72.91 67.5 C71.89 69.25, 70.75 70.93, 69.52 72.5 C68.29 74.07, 66.95 75.56, 65.53 76.92 C64.11 78.28, 62.58 79.54, 61 80.67 C59.42 81.79, 57.75 82.8, 56.04 83.66 C54.34 84.53, 52.55 85.26, 50.75 85.85 C48.95 86.43, 47.09 86.88, 45.23 87.18 C43.37 87.47, 41.47 87.62, 39.6 87.62 C37.72 87.62, 35.82 87.47, 33.96 87.18 C32.1 86.88, 30.24 86.43, 28.44 85.85 C26.64 85.26, 24.86 84.53, 23.15 83.66 C21.44 82.8, 19.77 81.79, 18.19 80.67 C16.61 79.54, 15.09 78.28, 13.67 76.92 C12.25 75.56, 10.9 74.07, 9.67 72.5 C8.44 70.93, 7.3 69.25, 6.29 67.5 C5.27 65.75, 4.36 63.9, 3.58 62.01 C2.8 60.12, 2.13 58.15, 1.6 56.15 C1.07 54.16, 0.67 52.1, 0.4 50.05 C0.14 47.99, 0 45.89, 0 43.81 C0 41.73, 0.14 39.63, 0.4 37.58 C0.67 35.52, 1.07 33.46, 1.6 31.47 C2.13 29.47, 2.8 27.5, 3.58 25.61 C4.36 23.72, 5.27 21.87, 6.29 20.12 C7.3 18.38, 8.44 16.69, 9.67 15.12 C10.9 13.55, 12.25 12.06, 13.67 10.7 C15.09 9.34, 16.61 8.08, 18.19 6.95 C19.77 5.83, 21.44 4.82, 23.15 3.96 C24.86 3.1, 26.64 2.36, 28.44 1.77 C30.24 1.19, 32.1 0.74, 33.96 0.45 C35.82 0.15, 37.72 0, 39.6 0 C41.47 0, 43.37 0.15, 45.23 0.45 C47.09 0.74, 48.95 1.19, 50.75 1.77 C52.55 2.36, 54.34 3.1, 56.04 3.96 C57.75 4.82, 59.42 5.83, 61 6.95 C62.58 8.08, 64.11 9.34, 65.53 10.7 C66.95 12.06, 68.29 13.55, 69.52 15.12 C70.75 16.69, 71.89 18.38, 72.91 20.12 C73.92 21.87, 74.83 23.72, 75.61 25.61 C76.39 27.5, 77.06 29.47, 77.59 31.47 C78.12 33.46, 78.52 35.52, 78.79 37.58 C79.06 39.63, 79.12 42.77, 79.19 43.81 C79.26 44.85, 79.26 42.77, 79.19 43.81" stroke="transparent" stroke-width="1" fill="none"></path></g><g stroke-linecap="round"><g transform="translate(81.62482809724679 60.39352242838322) rotate(0 -6.335609134898732 -5.085125448028748)"><path d="M0 0 C-0.71 -0.39, -2.88 -2.32, -4.29 -2.34 C-5.69 -2.35, -7.09 -0.16, -8.41 -0.1 C-9.73 -0.04, -11.51 -0.29, -12.21 -1.97 C-12.92 -3.65, -12.58 -8.8, -12.65 -10.17 M0 0 C-0.71 -0.39, -2.88 -2.32, -4.29 -2.34 C-5.69 -2.35, -7.09 -0.16, -8.41 -0.1 C-9.73 -0.04, -11.51 -0.29, -12.21 -1.97 C-12.92 -3.65, -12.58 -8.8, -12.65 -10.17" stroke="#495057" stroke-width="1" fill="none"></path></g></g><mask></mask><g stroke-linecap="round"><g transform="translate(47.48504315100945 89.44594178322177) rotate(0 -2.6144871375272487 -7.285205172835958)"><path d="M0 0 C-0.71 -0.5, -2.74 -2.79, -4.26 -3.01 C-5.78 -3.23, -7.65 -0.74, -9.14 -1.34 C-10.62 -1.93, -15 -4.4, -13.17 -6.59 C-11.34 -8.77, -1.74 -13.64, 1.85 -14.44 C5.44 -15.25, 7.29 -11.93, 8.38 -11.43 M0 0 C-0.71 -0.5, -2.74 -2.79, -4.26 -3.01 C-5.78 -3.23, -7.65 -0.74, -9.14 -1.34 C-10.62 -1.93, -15 -4.4, -13.17 -6.59 C-11.34 -8.77, -1.74 -13.64, 1.85 -14.44 C5.44 -15.25, 7.29 -11.93, 8.38 -11.43" stroke="#495057" stroke-width="1" fill="none"></path></g></g><mask></mask><g stroke-linecap="round"><g transform="translate(104.64360848074102 66.9928727432025) rotate(0 -26.725855238896656 7.1870886605131545)" fill-rule="evenodd"><path d="M0 0 L-0.11 2.94 L-39.14 25.66 L-52.95 15.72 L-53.45 11.24 L-14.74 -11.29 L0 0" stroke="none" stroke-width="0" fill="#ced4da" fill-rule="evenodd"></path><path d="M0 0 C-0.03 0.68, -0.05 1.35, -0.11 2.94 M0 0 C-0.03 0.76, -0.06 1.52, -0.11 2.94 M-0.11 2.94 C-15.36 11.82, -30.61 20.69, -39.14 25.66 M-0.11 2.94 C-8.24 7.67, -16.37 12.41, -39.14 25.66 M-39.14 25.66 C-43.04 22.85, -46.94 20.05, -52.95 15.72 M-39.14 25.66 C-42.77 23.05, -46.41 20.43, -52.95 15.72 M-52.95 15.72 C-53.14 14.06, -53.32 12.4, -53.45 11.24 M-52.95 15.72 C-53.14 14, -53.34 12.29, -53.45 11.24 M-53.45 11.24 C-40.49 3.7, -27.53 -3.85, -14.74 -11.29 M-53.45 11.24 C-39.9 3.35, -26.34 -4.54, -14.74 -11.29 M-14.74 -11.29 C-10.72 -8.21, -6.7 -5.13, 0 0 M-14.74 -11.29 C-11.7 -8.96, -8.66 -6.63, 0 0 M0 0 C0 0, 0 0, 0 0 M0 0 C0 0, 0 0, 0 0" stroke="#495057" stroke-width="2" fill="none"></path></g></g><mask></mask><g stroke-linecap="round"><g transform="translate(104.06747418604209 67.53991262588943) rotate(0 -26.36520403704253 11.218710673167152)"><path d="M0 0 C-8.72 5.09, -17.44 10.18, -38.44 22.44 M0 0 C-9.47 5.53, -18.94 11.06, -38.44 22.44 M-38.44 22.44 C-43.78 17.96, -49.12 13.48, -52.73 10.45 M-38.44 22.44 C-43.48 18.21, -48.53 13.97, -52.73 10.45" stroke="#495057" stroke-width="1" fill="none"></path></g></g><mask></mask><g stroke-linecap="round"><g transform="translate(65.49228005521945 93.1211709166646) rotate(0 0.015662916919609415 -1.4976823036322457)"><path d="M0 0 C0.01 -0.66, 0.01 -1.32, 0.03 -3 M0 0 C0.01 -1, 0.02 -2.01, 0.03 -3" stroke="#495057" stroke-width="1" fill="none"></path></g></g><mask></mask><g stroke-linecap="round"><g transform="translate(90.49799827939387 58.70399575329429) rotate(0 -5.832768918170586 10.611107690412837)" fill-rule="evenodd"><path d="M0 0 L10.46 8.17 L-12.4 21.22 L-22.12 12.51 L0 0" stroke="none" stroke-width="0" fill="#495057" fill-rule="evenodd"></path><path d="M0 0 C2.55 1.99, 5.11 3.99, 10.46 8.17 M0 0 C4.1 3.2, 8.2 6.4, 10.46 8.17 M10.46 8.17 C2.09 12.94, -6.27 17.72, -12.4 21.22 M10.46 8.17 C5.5 11, 0.54 13.83, -12.4 21.22 M-12.4 21.22 C-15.31 18.61, -18.22 16, -22.12 12.51 M-12.4 21.22 C-14.92 18.97, -17.43 16.71, -22.12 12.51 M-22.12 12.51 C-16.07 9.08, -10.01 5.66, 0 0 M-22.12 12.51 C-17.06 9.64, -11.99 6.78, 0 0 M0 0 C0 0, 0 0, 0 0 M0 0 C0 0, 0 0, 0 0" stroke="#495057" stroke-width="1" fill="none"></path></g></g><mask></mask><g stroke-linecap="round"><g transform="translate(67.01748751031846 72.0810071473802) rotate(0 -0.4069587940120982 2.578481262354444)" fill-rule="evenodd"><path d="M0 0 L3.28 3.01 L-1.04 5.16 L-4.09 2.31 L0 0" stroke="none" stroke-width="0" fill="#495057" fill-rule="evenodd"></path><path d="M0 0 C0.74 0.68, 1.49 1.36, 3.28 3.01 M0 0 C0.89 0.82, 1.78 1.64, 3.28 3.01 M3.28 3.01 C2.19 3.55, 1.1 4.09, -1.04 5.16 M3.28 3.01 C2.19 3.55, 1.1 4.1, -1.04 5.16 M-1.04 5.16 C-1.73 4.52, -2.42 3.88, -4.09 2.31 M-1.04 5.16 C-2.15 4.13, -3.25 3.1, -4.09 2.31 M-4.09 2.31 C-2.67 1.51, -1.25 0.71, 0 0 M-4.09 2.31 C-2.69 1.52, -1.29 0.73, 0 0 M0 0 C0 0, 0 0, 0 0 M0 0 C0 0, 0 0, 0 0" stroke="#495057" stroke-width="1" fill="none"></path></g></g><mask></mask><g stroke-linecap="round"><g transform="translate(61.37990361770244 75.1011413755682) rotate(0 1.9084774475986706 6.135528242220289)" fill-rule="evenodd"><path d="M0 0 L9.52 8.58 L3.72 12.27 L-5.71 3.72 L0 0" stroke="none" stroke-width="0" fill="#495057" fill-rule="evenodd"></path><path d="M0 0 C2.94 2.65, 5.88 5.3, 9.52 8.58 M0 0 C2.38 2.14, 4.75 4.28, 9.52 8.58 M9.52 8.58 C7.93 9.6, 6.33 10.61, 3.72 12.27 M9.52 8.58 C7.31 9.99, 5.1 11.4, 3.72 12.27 M3.72 12.27 C1.48 10.24, -0.76 8.2, -5.71 3.72 M3.72 12.27 C1.39 10.16, -0.93 8.05, -5.71 3.72 M-5.71 3.72 C-4.39 2.86, -3.07 2, 0 0 M-5.71 3.72 C-4.5 2.93, -3.29 2.15, 0 0 M0 0 C0 0, 0 0, 0 0 M0 0 C0 0, 0 0, 0 0" stroke="#495057" stroke-width="1" fill="none"></path></g></g><mask></mask><g stroke-linecap="round"><g transform="translate(56.69228307115009 94.21760000220593) rotate(0 -5.162930950246846 -1.905766557851166)" fill-rule="evenodd"><path d="M0 0 L-5.11 2.16 L-10.33 -1.92 L-10.19 -4.24 L-5.99 -5.97 L0 0" stroke="none" stroke-width="0" fill="#ced4da" fill-rule="evenodd"></path><path d="M0 0 C-1.33 0.56, -2.65 1.12, -5.11 2.16 M0 0 C-1.82 0.77, -3.63 1.53, -5.11 2.16 M-5.11 2.16 C-6.33 1.2, -7.56 0.24, -10.33 -1.92 M-5.11 2.16 C-6.58 1.01, -8.05 -0.14, -10.33 -1.92 M-10.33 -1.92 C-10.28 -2.7, -10.23 -3.47, -10.19 -4.24 M-10.33 -1.92 C-10.29 -2.45, -10.26 -2.97, -10.19 -4.24 M-10.19 -4.24 C-8.58 -4.9, -6.96 -5.57, -5.99 -5.97 M-10.19 -4.24 C-9.06 -4.7, -7.94 -5.17, -5.99 -5.97 M-5.99 -5.97 C-4.69 -4.67, -3.39 -3.38, 0 0 M-5.99 -5.97 C-4.74 -4.72, -3.48 -3.47, 0 0 M0 0 C0 0, 0 0, 0 0 M0 0 C0 0, 0 0, 0 0" stroke="#495057" stroke-width="2" fill="none"></path></g></g><mask></mask><g stroke-linecap="round"><g transform="translate(65.11461751486422 51.61335549476644) rotate(0 -12.5297197094269 4.6694953095855)" fill-rule="evenodd"><path d="M0 0 L-0.11 9.42 L-12.82 15.94 L-24.56 7.62 L-25.06 -1.49 L-13.58 -6.6 L0 0" stroke="none" stroke-width="0" fill="#ced4da" fill-rule="evenodd"></path><path d="M0 0 C-0.04 3.68, -0.09 7.36, -0.11 9.42 M0 0 C-0.02 1.96, -0.05 3.93, -0.11 9.42 M-0.11 9.42 C-3.7 11.26, -7.29 13.1, -12.82 15.94 M-0.11 9.42 C-3.46 11.14, -6.8 12.85, -12.82 15.94 M-12.82 15.94 C-17.18 12.85, -21.53 9.76, -24.56 7.62 M-12.82 15.94 C-17.32 12.75, -21.82 9.56, -24.56 7.62 M-24.56 7.62 C-24.73 4.57, -24.89 1.52, -25.06 -1.49 M-24.56 7.62 C-24.73 4.43, -24.91 1.24, -25.06 -1.49 M-25.06 -1.49 C-21.93 -2.88, -18.8 -4.27, -13.58 -6.6 M-25.06 -1.49 C-22.69 -2.54, -20.32 -3.59, -13.58 -6.6 M-13.58 -6.6 C-10.66 -5.18, -7.73 -3.76, 0 0 M-13.58 -6.6 C-8.2 -3.98, -2.82 -1.37, 0 0 M0 0 C0 0, 0 0, 0 0 M0 0 C0 0, 0 0, 0 0" stroke="#495057" stroke-width="2" fill="none"></path></g></g><mask></mask><g stroke-linecap="round"><g transform="translate(69.06109207875306 11.550447998893105) rotate(0 -20.06309877077183 25.995496511056672)" fill-rule="evenodd"><path d="M0 0 C-2.64 0.26, -9.72 -0.56, -15.81 1.57 C-21.91 3.7, -32.53 8.24, -36.57 12.77 C-40.61 17.31, -39.74 24.02, -40.04 28.79 C-40.33 33.55, -39.91 37.56, -38.35 41.35 C-36.79 45.14, -33.23 50.57, -30.66 51.53 C-28.09 52.5, -27.47 52.33, -22.93 47.12 C-18.38 41.92, -6.79 27.54, -3.38 20.3 C0.03 13.07, -2.62 6.48, -2.47 3.71" stroke="none" stroke-width="0" fill="#ced4da" fill-rule="evenodd"></path><path d="M0 0 C-2.64 0.26, -9.72 -0.56, -15.81 1.57 C-21.91 3.7, -32.53 8.24, -36.57 12.77 C-40.61 17.31, -39.74 24.02, -40.04 28.79 C-40.33 33.55, -39.91 37.56, -38.35 41.35 C-36.79 45.14, -33.23 50.57, -30.66 51.53 C-28.09 52.5, -27.47 52.33, -22.93 47.12 C-18.38 41.92, -6.79 27.54, -3.38 20.3 C0.03 13.07, -2.62 6.48, -2.47 3.71 M0 0 C-2.64 0.26, -9.72 -0.56, -15.81 1.57 C-21.91 3.7, -32.53 8.24, -36.57 12.77 C-40.61 17.31, -39.74 24.02, -40.04 28.79 C-40.33 33.55, -39.91 37.56, -38.35 41.35 C-36.79 45.14, -33.23 50.57, -30.66 51.53 C-28.09 52.5, -27.47 52.33, -22.93 47.12 C-18.38 41.92, -6.79 27.54, -3.38 20.3 C0.03 13.07, -2.62 6.48, -2.47 3.71" stroke="#495057" stroke-width="2" fill="none"></path></g></g><mask></mask><g stroke-linecap="round"><g transform="translate(80.23404994525845 37.73434568802077) rotate(0 -23.935218500353585 1.0837497832574172)" fill-rule="evenodd"><path d="M0 0 C-0.72 2.29, 1.8 9.05, -4.31 13.76 C-10.42 18.48, -29.64 27.33, -36.67 28.29 C-43.7 29.25, -44.79 25.53, -46.49 19.51 C-48.19 13.48, -48.32 -1.82, -46.87 -7.86 C-45.42 -13.9, -43.36 -13.7, -37.77 -16.74 C-32.18 -19.77, -19.34 -25.34, -13.34 -26.08 C-7.35 -26.82, -4.03 -25.5, -1.8 -21.15 C0.42 -16.81, -0.3 -3.53, 0 0" stroke="none" stroke-width="0" fill="#ced4da" fill-rule="evenodd"></path><path d="M0 0 C-0.72 2.29, 1.8 9.05, -4.31 13.76 C-10.42 18.48, -29.64 27.33, -36.67 28.29 C-43.7 29.25, -44.79 25.53, -46.49 19.51 C-48.19 13.48, -48.32 -1.82, -46.87 -7.86 C-45.42 -13.9, -43.36 -13.7, -37.77 -16.74 C-32.18 -19.77, -19.34 -25.34, -13.34 -26.08 C-7.35 -26.82, -4.03 -25.5, -1.8 -21.15 C0.42 -16.81, -0.3 -3.53, 0 0 M0 0 C-0.72 2.29, 1.8 9.05, -4.31 13.76 C-10.42 18.48, -29.64 27.33, -36.67 28.29 C-43.7 29.25, -44.79 25.53, -46.49 19.51 C-48.19 13.48, -48.32 -1.82, -46.87 -7.86 C-45.42 -13.9, -43.36 -13.7, -37.77 -16.74 C-32.18 -19.77, -19.34 -25.34, -13.34 -26.08 C-7.35 -26.82, -4.03 -25.5, -1.8 -21.15 C0.42 -16.81, -0.3 -3.53, 0 0" stroke="#495057" stroke-width="2" fill="none"></path></g></g><mask></mask><g stroke-linecap="round"><g transform="translate(77.05223176344043 37.28896774278746) rotate(0 -20.429769424908045 0.9579109377232271)" fill-rule="evenodd"><path d="M0 0 C-0.6 1.93, 1.26 7.63, -3.62 11.57 C-8.51 15.5, -23.29 22.4, -29.29 23.59 C-35.3 24.77, -37.9 23.46, -39.65 18.69 C-41.39 13.91, -41.09 0.38, -39.77 -5.08 C-38.46 -10.53, -36.5 -11.26, -31.74 -14.07 C-26.98 -16.87, -16.25 -21.3, -11.21 -21.92 C-6.17 -22.54, -3.38 -21.43, -1.52 -17.78 C0.35 -14.12, -0.25 -2.96, 0 0" stroke="none" stroke-width="0" fill="#343a40" fill-rule="evenodd"></path><path d="M0 0 C-0.6 1.93, 1.26 7.63, -3.62 11.57 C-8.51 15.5, -23.29 22.4, -29.29 23.59 C-35.3 24.77, -37.9 23.46, -39.65 18.69 C-41.39 13.91, -41.09 0.38, -39.77 -5.08 C-38.46 -10.53, -36.5 -11.26, -31.74 -14.07 C-26.98 -16.87, -16.25 -21.3, -11.21 -21.92 C-6.17 -22.54, -3.38 -21.43, -1.52 -17.78 C0.35 -14.12, -0.25 -2.96, 0 0 M0 0 C-0.6 1.93, 1.26 7.63, -3.62 11.57 C-8.51 15.5, -23.29 22.4, -29.29 23.59 C-35.3 24.77, -37.9 23.46, -39.65 18.69 C-41.39 13.91, -41.09 0.38, -39.77 -5.08 C-38.46 -10.53, -36.5 -11.26, -31.74 -14.07 C-26.98 -16.87, -16.25 -21.3, -11.21 -21.92 C-6.17 -22.54, -3.38 -21.43, -1.52 -17.78 C0.35 -14.12, -0.25 -2.96, 0 0" stroke="#495057" stroke-width="2" fill="none"></path></g></g><mask></mask><g stroke-linecap="round"><g transform="translate(65.14559335184822 113.32319017859709) rotate(0 0 140.46593848763973)"><path d="M0 0 C0 46.82, 0 234.11, 0 280.93" stroke="#4dabf7" stroke-width="2.5" fill="none" stroke-dasharray="1.5 8"></path></g></g><mask></mask><g transform="translate(10.406359280563265 135.98827692139184) rotate(0 23.348215103149414 9.599999999999909)"><text x="0" y="15.45" font-family="Cascadia, Segoe UI Emoji" font-size="16px" fill="#e03131" text-anchor="start" style="white-space: pre;" direction="ltr" dominant-baseline="alphabetic">HOP 1</text></g><g stroke-linecap="round"><g transform="translate(221.266230879266 44.03592176373104) rotate(0 30.05330349563883 15.898810531739855)" fill-rule="evenodd"><path d="M0 0 C-0.58 0.53, -2.87 1.92, -3.49 3.19 C-4.12 4.45, -3.78 5.15, -3.74 7.57 C-3.7 9.99, -3.54 15.13, -3.25 17.71 C-2.95 20.29, -2.7 21.47, -1.96 23.04 C-1.22 24.61, -0.1 25.76, 1.2 27.14 C2.49 28.53, 4.09 30.2, 5.8 31.35 C7.51 32.51, 9.42 33.3, 11.45 34.06 C13.49 34.82, 15.25 35.39, 18.01 35.9 C20.78 36.42, 24.75 37, 28.06 37.13 C31.37 37.26, 34.4 37.24, 37.87 36.7 C41.33 36.16, 45.54 35.18, 48.83 33.89 C52.13 32.59, 55.27 30.84, 57.63 28.95 C59.98 27.05, 61.96 24.41, 62.99 22.52 C64.01 20.62, 63.65 20.81, 63.78 17.58 C63.91 14.36, 64.15 6.08, 63.75 3.16 C63.35 0.23, 63.13 0.79, 61.39 0.06 C59.65 -0.67, 61.48 -0.32, 53.31 -1.23 C45.13 -2.13, 21.2 -5.6, 12.32 -5.39 C3.43 -5.19, 2.05 -0.9, 0 0" stroke="none" stroke-width="0" fill="#ced4da" fill-rule="evenodd"></path><path d="M0 0 C-0.58 0.53, -2.87 1.92, -3.49 3.19 C-4.12 4.45, -3.78 5.15, -3.74 7.57 C-3.7 9.99, -3.54 15.13, -3.25 17.71 C-2.95 20.29, -2.7 21.47, -1.96 23.04 C-1.22 24.61, -0.1 25.76, 1.2 27.14 C2.49 28.53, 4.09 30.2, 5.8 31.35 C7.51 32.51, 9.42 33.3, 11.45 34.06 C13.49 34.82, 15.25 35.39, 18.01 35.9 C20.78 36.42, 24.75 37, 28.06 37.13 C31.37 37.26, 34.4 37.24, 37.87 36.7 C41.33 36.16, 45.54 35.18, 48.83 33.89 C52.13 32.59, 55.27 30.84, 57.63 28.95 C59.98 27.05, 61.96 24.41, 62.99 22.52 C64.01 20.62, 63.65 20.81, 63.78 17.58 C63.91 14.36, 64.15 6.08, 63.75 3.16 C63.35 0.23, 63.13 0.79, 61.39 0.06 C59.65 -0.67, 61.48 -0.32, 53.31 -1.23 C45.13 -2.13, 21.2 -5.6, 12.32 -5.39 C3.43 -5.19, 2.05 -0.9, 0 0 M0 0 C-0.58 0.53, -2.87 1.92, -3.49 3.19 C-4.12 4.45, -3.78 5.15, -3.74 7.57 C-3.7 9.99, -3.54 15.13, -3.25 17.71 C-2.95 20.29, -2.7 21.47, -1.96 23.04 C-1.22 24.61, -0.1 25.76, 1.2 27.14 C2.49 28.53, 4.09 30.2, 5.8 31.35 C7.51 32.51, 9.42 33.3, 11.45 34.06 C13.49 34.82, 15.25 35.39, 18.01 35.9 C20.78 36.42, 24.75 37, 28.06 37.13 C31.37 37.26, 34.4 37.24, 37.87 36.7 C41.33 36.16, 45.54 35.18, 48.83 33.89 C52.13 32.59, 55.27 30.84, 57.63 28.95 C59.98 27.05, 61.96 24.41, 62.99 22.52 C64.01 20.62, 63.65 20.81, 63.78 17.58 C63.91 14.36, 64.15 6.08, 63.75 3.16 C63.35 0.23, 63.13 0.79, 61.39 0.06 C59.65 -0.67, 61.48 -0.32, 53.31 -1.23 C45.13 -2.13, 21.2 -5.6, 12.32 -5.39 C3.43 -5.19, 2.05 -0.9, 0 0" stroke="#495057" stroke-width="2" fill="none"></path></g></g><mask></mask><g stroke-linecap="round" transform="translate(217.2647335144411 26.388049945922376) rotate(0 33.98831448232886 21.3554896304895)"><path d="M67.98 21.36 C67.98 22.59, 67.8 23.85, 67.46 25.06 C67.12 26.28, 66.6 27.5, 65.93 28.66 C65.25 29.82, 64.41 30.96, 63.42 32.03 C62.44 33.1, 61.29 34.14, 60.02 35.08 C58.76 36.03, 57.34 36.92, 55.84 37.71 C54.33 38.51, 52.69 39.23, 50.98 39.85 C49.28 40.47, 47.46 41, 45.61 41.42 C43.76 41.85, 41.83 42.17, 39.89 42.39 C37.95 42.6, 35.96 42.71, 33.99 42.71 C32.02 42.71, 30.02 42.6, 28.09 42.39 C26.15 42.17, 24.21 41.85, 22.36 41.42 C20.51 41, 18.7 40.47, 16.99 39.85 C15.29 39.23, 13.65 38.51, 12.14 37.71 C10.63 36.92, 9.22 36.03, 7.95 35.08 C6.69 34.14, 5.54 33.1, 4.55 32.03 C3.57 30.96, 2.72 29.82, 2.05 28.66 C1.38 27.5, 0.86 26.28, 0.52 25.06 C0.17 23.85, 0 22.59, 0 21.36 C0 20.12, 0.17 18.86, 0.52 17.65 C0.86 16.43, 1.38 15.21, 2.05 14.05 C2.72 12.89, 3.57 11.75, 4.55 10.68 C5.54 9.61, 6.69 8.58, 7.95 7.63 C9.22 6.68, 10.63 5.79, 12.14 5 C13.65 4.2, 15.29 3.48, 16.99 2.86 C18.7 2.24, 20.51 1.71, 22.36 1.29 C24.21 0.87, 26.15 0.54, 28.09 0.32 C30.02 0.11, 32.02 0, 33.99 0 C35.96 0, 37.95 0.11, 39.89 0.32 C41.83 0.54, 43.76 0.87, 45.61 1.29 C47.46 1.71, 49.28 2.24, 50.98 2.86 C52.69 3.48, 54.33 4.2, 55.84 5 C57.34 5.79, 58.76 6.68, 60.02 7.63 C61.29 8.58, 62.44 9.61, 63.42 10.68 C64.41 11.75, 65.25 12.89, 65.93 14.05 C66.6 15.21, 67.12 16.43, 67.46 17.65 C67.8 18.86, 67.89 20.74, 67.98 21.36 C68.06 21.97, 68.06 20.74, 67.98 21.36" stroke="none" stroke-width="0" fill="#ced4da"></path><path d="M67.98 21.36 C67.98 22.59, 67.8 23.85, 67.46 25.06 C67.12 26.28, 66.6 27.5, 65.93 28.66 C65.25 29.82, 64.41 30.96, 63.42 32.03 C62.44 33.1, 61.29 34.14, 60.02 35.08 C58.76 36.03, 57.34 36.92, 55.84 37.71 C54.33 38.51, 52.69 39.23, 50.98 39.85 C49.28 40.47, 47.46 41, 45.61 41.42 C43.76 41.85, 41.83 42.17, 39.89 42.39 C37.95 42.6, 35.96 42.71, 33.99 42.71 C32.02 42.71, 30.02 42.6, 28.09 42.39 C26.15 42.17, 24.21 41.85, 22.36 41.42 C20.51 41, 18.7 40.47, 16.99 39.85 C15.29 39.23, 13.65 38.51, 12.14 37.71 C10.63 36.92, 9.22 36.03, 7.95 35.08 C6.69 34.14, 5.54 33.1, 4.55 32.03 C3.57 30.96, 2.72 29.82, 2.05 28.66 C1.38 27.5, 0.86 26.28, 0.52 25.06 C0.17 23.85, 0 22.59, 0 21.36 C0 20.12, 0.17 18.86, 0.52 17.65 C0.86 16.43, 1.38 15.21, 2.05 14.05 C2.72 12.89, 3.57 11.75, 4.55 10.68 C5.54 9.61, 6.69 8.58, 7.95 7.63 C9.22 6.68, 10.63 5.79, 12.14 5 C13.65 4.2, 15.29 3.48, 16.99 2.86 C18.7 2.24, 20.51 1.71, 22.36 1.29 C24.21 0.87, 26.15 0.54, 28.09 0.32 C30.02 0.11, 32.02 0, 33.99 0 C35.96 0, 37.95 0.11, 39.89 0.32 C41.83 0.54, 43.76 0.87, 45.61 1.29 C47.46 1.71, 49.28 2.24, 50.98 2.86 C52.69 3.48, 54.33 4.2, 55.84 5 C57.34 5.79, 58.76 6.68, 60.02 7.63 C61.29 8.58, 62.44 9.61, 63.42 10.68 C64.41 11.75, 65.25 12.89, 65.93 14.05 C66.6 15.21, 67.12 16.43, 67.46 17.65 C67.8 18.86, 67.89 20.74, 67.98 21.36 C68.06 21.97, 68.06 20.74, 67.98 21.36" stroke="#495057" stroke-width="2" fill="none"></path></g><g stroke-linecap="round"><g transform="translate(242.16430557578315 44.79472296495214) rotate(180 -3.416358242091519 -6.336697255434501)" fill-rule="evenodd"><path d="M0 0 L-7.75 -6.28 L-11.67 -4 L-11.76 -12.67 L-0.83 -11.88 L-4.51 -9.05 L4.92 -2.36 L0 0" stroke="none" stroke-width="0" fill="#495057" fill-rule="evenodd"></path><path d="M0 0 C-1.66 -1.35, -3.33 -2.7, -7.75 -6.28 M0 0 C-2.02 -1.64, -4.04 -3.27, -7.75 -6.28 M-7.75 -6.28 C-9.28 -5.39, -10.8 -4.51, -11.67 -4 M-7.75 -6.28 C-8.59 -5.79, -9.44 -5.3, -11.67 -4 M-11.67 -4 C-11.69 -5.82, -11.71 -7.65, -11.76 -12.67 M-11.67 -4 C-11.7 -7.14, -11.73 -10.28, -11.76 -12.67 M-11.76 -12.67 C-9.13 -12.48, -6.51 -12.29, -0.83 -11.88 M-11.76 -12.67 C-8.1 -12.41, -4.45 -12.14, -0.83 -11.88 M-0.83 -11.88 C-2.17 -10.85, -3.5 -9.82, -4.51 -9.05 M-0.83 -11.88 C-2.23 -10.8, -3.63 -9.72, -4.51 -9.05 M-4.51 -9.05 C-0.84 -6.44, 2.83 -3.84, 4.92 -2.36 M-4.51 -9.05 C-2.58 -7.68, -0.65 -6.31, 4.92 -2.36 M4.92 -2.36 C3.12 -1.49, 1.32 -0.63, 0 0 M4.92 -2.36 C3.42 -1.64, 1.92 -0.92, 0 0 M0 0 C0 0, 0 0, 0 0 M0 0 C0 0, 0 0, 0 0" stroke="#495057" stroke-width="1" fill="none"></path></g></g><mask></mask><g stroke-linecap="round"><g transform="translate(265.8304279203676 62.90016606717836) rotate(0 -4.4103172276127225 -6.4846115866535)" fill-rule="evenodd"><path d="M0 0 L-8.53 -6.69 L-12.38 -3.24 L-12.47 -12.97 L-1.75 -12.19 L-5.35 -9.41 L3.65 -3.35 L0 0" stroke="none" stroke-width="0" fill="#495057" fill-rule="evenodd"></path><path d="M0 0 C-2.13 -1.67, -4.26 -3.34, -8.53 -6.69 M0 0 C-2.62 -2.06, -5.24 -4.11, -8.53 -6.69 M-8.53 -6.69 C-9.95 -5.43, -11.36 -4.16, -12.38 -3.24 M-8.53 -6.69 C-9.84 -5.52, -11.15 -4.35, -12.38 -3.24 M-12.38 -3.24 C-12.42 -7.13, -12.45 -11.01, -12.47 -12.97 M-12.38 -3.24 C-12.41 -6.84, -12.45 -10.45, -12.47 -12.97 M-12.47 -12.97 C-8.72 -12.7, -4.98 -12.42, -1.75 -12.19 M-12.47 -12.97 C-8.72 -12.7, -4.97 -12.42, -1.75 -12.19 M-1.75 -12.19 C-3.03 -11.2, -4.31 -10.21, -5.35 -9.41 M-1.75 -12.19 C-3.11 -11.14, -4.46 -10.09, -5.35 -9.41 M-5.35 -9.41 C-1.79 -7.01, 1.78 -4.61, 3.65 -3.35 M-5.35 -9.41 C-3.2 -7.96, -1.06 -6.52, 3.65 -3.35 M3.65 -3.35 C2.53 -2.32, 1.41 -1.3, 0 0 M3.65 -3.35 C2.72 -2.5, 1.79 -1.65, 0 0 M0 0 C0 0, 0 0, 0 0 M0 0 C0 0, 0 0, 0 0" stroke="#495057" stroke-width="1" fill="none"></path></g></g><mask></mask><g stroke-linecap="round"><g transform="translate(235.02395070768762 62.24405562280617) rotate(180 4.410317227611813 -6.4846115866535)" fill-rule="evenodd"><path d="M0 0 L8.53 -6.69 L12.38 -3.24 L12.47 -12.97 L1.75 -12.19 L5.35 -9.41 L-3.65 -3.35 L0 0" stroke="none" stroke-width="0" fill="#495057" fill-rule="evenodd"></path><path d="M0 0 C2.25 -1.76, 4.49 -3.53, 8.53 -6.69 M0 0 C2.22 -1.74, 4.43 -3.48, 8.53 -6.69 M8.53 -6.69 C9.59 -5.74, 10.65 -4.79, 12.38 -3.24 M8.53 -6.69 C9.43 -5.89, 10.32 -5.09, 12.38 -3.24 M12.38 -3.24 C12.41 -6.1, 12.43 -8.97, 12.47 -12.97 M12.38 -3.24 C12.4 -5.63, 12.42 -8.01, 12.47 -12.97 M12.47 -12.97 C9.02 -12.72, 5.57 -12.47, 1.75 -12.19 M12.47 -12.97 C9.74 -12.77, 7 -12.57, 1.75 -12.19 M1.75 -12.19 C2.5 -11.61, 3.25 -11.03, 5.35 -9.41 M1.75 -12.19 C2.48 -11.63, 3.2 -11.07, 5.35 -9.41 M5.35 -9.41 C2.97 -7.8, 0.58 -6.2, -3.65 -3.35 M5.35 -9.41 C3.13 -7.91, 0.9 -6.41, -3.65 -3.35 M-3.65 -3.35 C-2.3 -2.11, -0.95 -0.87, 0 0 M-3.65 -3.35 C-2.48 -2.27, -1.3 -1.2, 0 0 M0 0 C0 0, 0 0, 0 0 M0 0 C0 0, 0 0, 0 0" stroke="#495057" stroke-width="1" fill="none"></path></g></g><mask></mask><g stroke-linecap="round"><g transform="translate(255.55379120060206 46.03871399786385) rotate(0 4.410317227611813 -6.4846115866535)" fill-rule="evenodd"><path d="M0 0 L8.53 -6.69 L12.38 -3.24 L12.47 -12.97 L1.75 -12.19 L5.35 -9.41 L-3.65 -3.35 L0 0" stroke="none" stroke-width="0" fill="#495057" fill-rule="evenodd"></path><path d="M0 0 C3.35 -2.62, 6.69 -5.25, 8.53 -6.69 M0 0 C2.44 -1.91, 4.87 -3.82, 8.53 -6.69 M8.53 -6.69 C10.06 -5.32, 11.59 -3.95, 12.38 -3.24 M8.53 -6.69 C9.86 -5.51, 11.18 -4.32, 12.38 -3.24 M12.38 -3.24 C12.42 -7.03, 12.45 -10.82, 12.47 -12.97 M12.38 -3.24 C12.4 -5.23, 12.42 -7.22, 12.47 -12.97 M12.47 -12.97 C10.01 -12.79, 7.55 -12.61, 1.75 -12.19 M12.47 -12.97 C10.11 -12.8, 7.76 -12.63, 1.75 -12.19 M1.75 -12.19 C2.62 -11.52, 3.48 -10.85, 5.35 -9.41 M1.75 -12.19 C2.69 -11.46, 3.63 -10.74, 5.35 -9.41 M5.35 -9.41 C2.47 -7.47, -0.42 -5.52, -3.65 -3.35 M5.35 -9.41 C3.03 -7.84, 0.7 -6.28, -3.65 -3.35 M-3.65 -3.35 C-2.36 -2.17, -1.07 -0.98, 0 0 M-3.65 -3.35 C-2.78 -2.55, -1.9 -1.75, 0 0 M0 0 C0 0, 0 0, 0 0 M0 0 C0 0, 0 0, 0 0" stroke="#495057" stroke-width="1" fill="none"></path></g></g><mask></mask><g stroke-linecap="round"><g transform="translate(410.82041224347995 44.03592184738636) rotate(0 30.05330349563883 15.898810531739855)" fill-rule="evenodd"><path d="M0 0 C-0.58 0.53, -2.87 1.92, -3.49 3.19 C-4.12 4.45, -3.78 5.15, -3.74 7.57 C-3.7 9.99, -3.54 15.13, -3.25 17.71 C-2.95 20.29, -2.7 21.47, -1.96 23.04 C-1.22 24.61, -0.1 25.76, 1.2 27.14 C2.49 28.53, 4.09 30.2, 5.8 31.35 C7.51 32.51, 9.42 33.3, 11.45 34.06 C13.49 34.82, 15.25 35.39, 18.01 35.9 C20.78 36.42, 24.75 37, 28.06 37.13 C31.37 37.26, 34.4 37.24, 37.87 36.7 C41.33 36.16, 45.54 35.18, 48.83 33.89 C52.13 32.59, 55.27 30.84, 57.63 28.95 C59.98 27.05, 61.96 24.41, 62.99 22.52 C64.01 20.62, 63.65 20.81, 63.78 17.58 C63.91 14.36, 64.15 6.08, 63.75 3.16 C63.35 0.23, 63.13 0.79, 61.39 0.06 C59.65 -0.67, 61.48 -0.32, 53.31 -1.23 C45.13 -2.13, 21.2 -5.6, 12.32 -5.39 C3.43 -5.19, 2.05 -0.9, 0 0" stroke="none" stroke-width="0" fill="#ced4da" fill-rule="evenodd"></path><path d="M0 0 C-0.58 0.53, -2.87 1.92, -3.49 3.19 C-4.12 4.45, -3.78 5.15, -3.74 7.57 C-3.7 9.99, -3.54 15.13, -3.25 17.71 C-2.95 20.29, -2.7 21.47, -1.96 23.04 C-1.22 24.61, -0.1 25.76, 1.2 27.14 C2.49 28.53, 4.09 30.2, 5.8 31.35 C7.51 32.51, 9.42 33.3, 11.45 34.06 C13.49 34.82, 15.25 35.39, 18.01 35.9 C20.78 36.42, 24.75 37, 28.06 37.13 C31.37 37.26, 34.4 37.24, 37.87 36.7 C41.33 36.16, 45.54 35.18, 48.83 33.89 C52.13 32.59, 55.27 30.84, 57.63 28.95 C59.98 27.05, 61.96 24.41, 62.99 22.52 C64.01 20.62, 63.65 20.81, 63.78 17.58 C63.91 14.36, 64.15 6.08, 63.75 3.16 C63.35 0.23, 63.13 0.79, 61.39 0.06 C59.65 -0.67, 61.48 -0.32, 53.31 -1.23 C45.13 -2.13, 21.2 -5.6, 12.32 -5.39 C3.43 -5.19, 2.05 -0.9, 0 0 M0 0 C-0.58 0.53, -2.87 1.92, -3.49 3.19 C-4.12 4.45, -3.78 5.15, -3.74 7.57 C-3.7 9.99, -3.54 15.13, -3.25 17.71 C-2.95 20.29, -2.7 21.47, -1.96 23.04 C-1.22 24.61, -0.1 25.76, 1.2 27.14 C2.49 28.53, 4.09 30.2, 5.8 31.35 C7.51 32.51, 9.42 33.3, 11.45 34.06 C13.49 34.82, 15.25 35.39, 18.01 35.9 C20.78 36.42, 24.75 37, 28.06 37.13 C31.37 37.26, 34.4 37.24, 37.87 36.7 C41.33 36.16, 45.54 35.18, 48.83 33.89 C52.13 32.59, 55.27 30.84, 57.63 28.95 C59.98 27.05, 61.96 24.41, 62.99 22.52 C64.01 20.62, 63.65 20.81, 63.78 17.58 C63.91 14.36, 64.15 6.08, 63.75 3.16 C63.35 0.23, 63.13 0.79, 61.39 0.06 C59.65 -0.67, 61.48 -0.32, 53.31 -1.23 C45.13 -2.13, 21.2 -5.6, 12.32 -5.39 C3.43 -5.19, 2.05 -0.9, 0 0" stroke="#495057" stroke-width="2" fill="none"></path></g></g><mask></mask><g stroke-linecap="round" transform="translate(406.8189148786587 26.3880500295777) rotate(0 33.98831448232886 21.3554896304895)"><path d="M67.98 21.36 C67.98 22.59, 67.8 23.85, 67.46 25.06 C67.12 26.28, 66.6 27.5, 65.93 28.66 C65.25 29.82, 64.41 30.96, 63.42 32.03 C62.44 33.1, 61.29 34.14, 60.02 35.08 C58.76 36.03, 57.34 36.92, 55.84 37.71 C54.33 38.51, 52.69 39.23, 50.98 39.85 C49.28 40.47, 47.46 41, 45.61 41.42 C43.76 41.85, 41.83 42.17, 39.89 42.39 C37.95 42.6, 35.96 42.71, 33.99 42.71 C32.02 42.71, 30.02 42.6, 28.09 42.39 C26.15 42.17, 24.21 41.85, 22.36 41.42 C20.51 41, 18.7 40.47, 16.99 39.85 C15.29 39.23, 13.65 38.51, 12.14 37.71 C10.63 36.92, 9.22 36.03, 7.95 35.08 C6.69 34.14, 5.54 33.1, 4.55 32.03 C3.57 30.96, 2.72 29.82, 2.05 28.66 C1.38 27.5, 0.86 26.28, 0.52 25.06 C0.17 23.85, 0 22.59, 0 21.36 C0 20.12, 0.17 18.86, 0.52 17.65 C0.86 16.43, 1.38 15.21, 2.05 14.05 C2.72 12.89, 3.57 11.75, 4.55 10.68 C5.54 9.61, 6.69 8.58, 7.95 7.63 C9.22 6.68, 10.63 5.79, 12.14 5 C13.65 4.2, 15.29 3.48, 16.99 2.86 C18.7 2.24, 20.51 1.71, 22.36 1.29 C24.21 0.87, 26.15 0.54, 28.09 0.32 C30.02 0.11, 32.02 0, 33.99 0 C35.96 0, 37.95 0.11, 39.89 0.32 C41.83 0.54, 43.76 0.87, 45.61 1.29 C47.46 1.71, 49.28 2.24, 50.98 2.86 C52.69 3.48, 54.33 4.2, 55.84 5 C57.34 5.79, 58.76 6.68, 60.02 7.63 C61.29 8.58, 62.44 9.61, 63.42 10.68 C64.41 11.75, 65.25 12.89, 65.93 14.05 C66.6 15.21, 67.12 16.43, 67.46 17.65 C67.8 18.86, 67.89 20.74, 67.98 21.36 C68.06 21.97, 68.06 20.74, 67.98 21.36" stroke="none" stroke-width="0" fill="#ced4da"></path><path d="M67.98 21.36 C67.98 22.59, 67.8 23.85, 67.46 25.06 C67.12 26.28, 66.6 27.5, 65.93 28.66 C65.25 29.82, 64.41 30.96, 63.42 32.03 C62.44 33.1, 61.29 34.14, 60.02 35.08 C58.76 36.03, 57.34 36.92, 55.84 37.71 C54.33 38.51, 52.69 39.23, 50.98 39.85 C49.28 40.47, 47.46 41, 45.61 41.42 C43.76 41.85, 41.83 42.17, 39.89 42.39 C37.95 42.6, 35.96 42.71, 33.99 42.71 C32.02 42.71, 30.02 42.6, 28.09 42.39 C26.15 42.17, 24.21 41.85, 22.36 41.42 C20.51 41, 18.7 40.47, 16.99 39.85 C15.29 39.23, 13.65 38.51, 12.14 37.71 C10.63 36.92, 9.22 36.03, 7.95 35.08 C6.69 34.14, 5.54 33.1, 4.55 32.03 C3.57 30.96, 2.72 29.82, 2.05 28.66 C1.38 27.5, 0.86 26.28, 0.52 25.06 C0.17 23.85, 0 22.59, 0 21.36 C0 20.12, 0.17 18.86, 0.52 17.65 C0.86 16.43, 1.38 15.21, 2.05 14.05 C2.72 12.89, 3.57 11.75, 4.55 10.68 C5.54 9.61, 6.69 8.58, 7.95 7.63 C9.22 6.68, 10.63 5.79, 12.14 5 C13.65 4.2, 15.29 3.48, 16.99 2.86 C18.7 2.24, 20.51 1.71, 22.36 1.29 C24.21 0.87, 26.15 0.54, 28.09 0.32 C30.02 0.11, 32.02 0, 33.99 0 C35.96 0, 37.95 0.11, 39.89 0.32 C41.83 0.54, 43.76 0.87, 45.61 1.29 C47.46 1.71, 49.28 2.24, 50.98 2.86 C52.69 3.48, 54.33 4.2, 55.84 5 C57.34 5.79, 58.76 6.68, 60.02 7.63 C61.29 8.58, 62.44 9.61, 63.42 10.68 C64.41 11.75, 65.25 12.89, 65.93 14.05 C66.6 15.21, 67.12 16.43, 67.46 17.65 C67.8 18.86, 67.89 20.74, 67.98 21.36 C68.06 21.97, 68.06 20.74, 67.98 21.36" stroke="#495057" stroke-width="2" fill="none"></path></g><g stroke-linecap="round"><g transform="translate(431.7184869399971 44.794723048607466) rotate(180 -3.416358242091519 -6.336697255434501)" fill-rule="evenodd"><path d="M0 0 L-7.75 -6.28 L-11.67 -4 L-11.76 -12.67 L-0.83 -11.88 L-4.51 -9.05 L4.92 -2.36 L0 0" stroke="none" stroke-width="0" fill="#495057" fill-rule="evenodd"></path><path d="M0 0 C-2.49 -2.02, -4.98 -4.04, -7.75 -6.28 M0 0 C-2.03 -1.64, -4.06 -3.29, -7.75 -6.28 M-7.75 -6.28 C-8.62 -5.77, -9.5 -5.26, -11.67 -4 M-7.75 -6.28 C-8.75 -5.69, -9.76 -5.11, -11.67 -4 M-11.67 -4 C-11.7 -6.76, -11.72 -9.52, -11.76 -12.67 M-11.67 -4 C-11.7 -6.76, -11.72 -9.51, -11.76 -12.67 M-11.76 -12.67 C-8.62 -12.44, -5.48 -12.22, -0.83 -11.88 M-11.76 -12.67 C-8.71 -12.45, -5.66 -12.23, -0.83 -11.88 M-0.83 -11.88 C-1.64 -11.25, -2.45 -10.63, -4.51 -9.05 M-0.83 -11.88 C-1.75 -11.17, -2.67 -10.46, -4.51 -9.05 M-4.51 -9.05 C-1.45 -6.88, 1.61 -4.7, 4.92 -2.36 M-4.51 -9.05 C-1.17 -6.68, 2.17 -4.31, 4.92 -2.36 M4.92 -2.36 C3.27 -1.56, 1.61 -0.77, 0 0 M4.92 -2.36 C3.11 -1.49, 1.3 -0.62, 0 0 M0 0 C0 0, 0 0, 0 0 M0 0 C0 0, 0 0, 0 0" stroke="#495057" stroke-width="1" fill="none"></path></g></g><mask></mask><g stroke-linecap="round"><g transform="translate(455.38460928458153 62.90016615083414) rotate(0 -4.4103172276127225 -6.4846115866535)" fill-rule="evenodd"><path d="M0 0 L-8.53 -6.69 L-12.38 -3.24 L-12.47 -12.97 L-1.75 -12.19 L-5.35 -9.41 L3.65 -3.35 L0 0" stroke="none" stroke-width="0" fill="#495057" fill-rule="evenodd"></path><path d="M0 0 C-3.07 -2.41, -6.14 -4.81, -8.53 -6.69 M0 0 C-2.32 -1.82, -4.63 -3.63, -8.53 -6.69 M-8.53 -6.69 C-9.68 -5.67, -10.82 -4.64, -12.38 -3.24 M-8.53 -6.69 C-9.85 -5.52, -11.16 -4.34, -12.38 -3.24 M-12.38 -3.24 C-12.4 -5.67, -12.43 -8.1, -12.47 -12.97 M-12.38 -3.24 C-12.41 -6.42, -12.44 -9.6, -12.47 -12.97 M-12.47 -12.97 C-10.11 -12.8, -7.75 -12.62, -1.75 -12.19 M-12.47 -12.97 C-8.76 -12.7, -5.06 -12.43, -1.75 -12.19 M-1.75 -12.19 C-2.97 -11.25, -4.19 -10.31, -5.35 -9.41 M-1.75 -12.19 C-2.55 -11.57, -3.35 -10.96, -5.35 -9.41 M-5.35 -9.41 C-2.97 -7.8, -0.58 -6.2, 3.65 -3.35 M-5.35 -9.41 C-2.4 -7.42, 0.55 -5.44, 3.65 -3.35 M3.65 -3.35 C2.53 -2.32, 1.41 -1.3, 0 0 M3.65 -3.35 C2.45 -2.25, 1.25 -1.15, 0 0 M0 0 C0 0, 0 0, 0 0 M0 0 C0 0, 0 0, 0 0" stroke="#495057" stroke-width="1" fill="none"></path></g></g><mask></mask><g stroke-linecap="round"><g transform="translate(424.5781320719034 62.244055706461495) rotate(180 4.410317227611813 -6.4846115866535)" fill-rule="evenodd"><path d="M0 0 L8.53 -6.69 L12.38 -3.24 L12.47 -12.97 L1.75 -12.19 L5.35 -9.41 L-3.65 -3.35 L0 0" stroke="none" stroke-width="0" fill="#495057" fill-rule="evenodd"></path><path d="M0 0 C2.18 -1.71, 4.35 -3.41, 8.53 -6.69 M0 0 C2.04 -1.6, 4.08 -3.2, 8.53 -6.69 M8.53 -6.69 C9.85 -5.51, 11.17 -4.33, 12.38 -3.24 M8.53 -6.69 C9.6 -5.74, 10.67 -4.78, 12.38 -3.24 M12.38 -3.24 C12.4 -5.46, 12.42 -7.69, 12.47 -12.97 M12.38 -3.24 C12.41 -6.41, 12.44 -9.58, 12.47 -12.97 M12.47 -12.97 C9.24 -12.73, 6.02 -12.5, 1.75 -12.19 M12.47 -12.97 C8.46 -12.68, 4.45 -12.38, 1.75 -12.19 M1.75 -12.19 C2.78 -11.39, 3.81 -10.6, 5.35 -9.41 M1.75 -12.19 C2.66 -11.48, 3.57 -10.78, 5.35 -9.41 M5.35 -9.41 C2.12 -7.23, -1.11 -5.06, -3.65 -3.35 M5.35 -9.41 C1.96 -7.13, -1.43 -4.84, -3.65 -3.35 M-3.65 -3.35 C-2.35 -2.16, -1.05 -0.97, 0 0 M-3.65 -3.35 C-2.25 -2.06, -0.85 -0.78, 0 0 M0 0 C0 0, 0 0, 0 0 M0 0 C0 0, 0 0, 0 0" stroke="#495057" stroke-width="1" fill="none"></path></g></g><mask></mask><g stroke-linecap="round"><g transform="translate(445.10797256481965 46.03871408151872) rotate(0 4.410317227611813 -6.4846115866535)" fill-rule="evenodd"><path d="M0 0 L8.53 -6.69 L12.38 -3.24 L12.47 -12.97 L1.75 -12.19 L5.35 -9.41 L-3.65 -3.35 L0 0" stroke="none" stroke-width="0" fill="#495057" fill-rule="evenodd"></path><path d="M0 0 C2.02 -1.59, 4.05 -3.18, 8.53 -6.69 M0 0 C3.07 -2.41, 6.13 -4.81, 8.53 -6.69 M8.53 -6.69 C9.95 -5.42, 11.37 -4.16, 12.38 -3.24 M8.53 -6.69 C9.91 -5.46, 11.29 -4.22, 12.38 -3.24 M12.38 -3.24 C12.4 -5.31, 12.42 -7.37, 12.47 -12.97 M12.38 -3.24 C12.41 -6.07, 12.43 -8.9, 12.47 -12.97 M12.47 -12.97 C9.27 -12.74, 6.08 -12.5, 1.75 -12.19 M12.47 -12.97 C9.16 -12.73, 5.85 -12.49, 1.75 -12.19 M1.75 -12.19 C2.51 -11.6, 3.26 -11.02, 5.35 -9.41 M1.75 -12.19 C2.62 -11.52, 3.48 -10.85, 5.35 -9.41 M5.35 -9.41 C1.78 -7.01, -1.79 -4.6, -3.65 -3.35 M5.35 -9.41 C3.26 -8, 1.17 -6.59, -3.65 -3.35 M-3.65 -3.35 C-2.62 -2.4, -1.59 -1.46, 0 0 M-3.65 -3.35 C-2.6 -2.39, -1.55 -1.42, 0 0 M0 0 C0 0, 0 0, 0 0 M0 0 C0 0, 0 0, 0 0" stroke="#495057" stroke-width="1" fill="none"></path></g></g><mask></mask><g stroke-linecap="round" transform="translate(590.8204059024447 10) rotate(0 39.595957131572504 43.811027053090584)"><path d="M79.19 43.81 C79.19 45.89, 79.06 47.99, 78.79 50.05 C78.52 52.1, 78.12 54.16, 77.59 56.15 C77.06 58.15, 76.39 60.12, 75.61 62.01 C74.83 63.9, 73.92 65.75, 72.91 67.5 C71.89 69.25, 70.75 70.93, 69.52 72.5 C68.29 74.07, 66.95 75.56, 65.53 76.92 C64.11 78.28, 62.58 79.54, 61 80.67 C59.42 81.79, 57.75 82.8, 56.04 83.66 C54.34 84.53, 52.55 85.26, 50.75 85.85 C48.95 86.43, 47.09 86.88, 45.23 87.18 C43.37 87.47, 41.47 87.62, 39.6 87.62 C37.72 87.62, 35.82 87.47, 33.96 87.18 C32.1 86.88, 30.24 86.43, 28.44 85.85 C26.64 85.26, 24.86 84.53, 23.15 83.66 C21.44 82.8, 19.77 81.79, 18.19 80.67 C16.61 79.54, 15.09 78.28, 13.67 76.92 C12.25 75.56, 10.9 74.07, 9.67 72.5 C8.44 70.93, 7.3 69.25, 6.29 67.5 C5.27 65.75, 4.36 63.9, 3.58 62.01 C2.8 60.12, 2.13 58.15, 1.6 56.15 C1.07 54.16, 0.67 52.1, 0.4 50.05 C0.14 47.99, 0 45.89, 0 43.81 C0 41.73, 0.14 39.63, 0.4 37.58 C0.67 35.52, 1.07 33.46, 1.6 31.47 C2.13 29.47, 2.8 27.5, 3.58 25.61 C4.36 23.72, 5.27 21.87, 6.29 20.12 C7.3 18.38, 8.44 16.69, 9.67 15.12 C10.9 13.55, 12.25 12.06, 13.67 10.7 C15.09 9.34, 16.61 8.08, 18.19 6.95 C19.77 5.83, 21.44 4.82, 23.15 3.96 C24.86 3.1, 26.64 2.36, 28.44 1.77 C30.24 1.19, 32.1 0.74, 33.96 0.45 C35.82 0.15, 37.72 0, 39.6 0 C41.47 0, 43.37 0.15, 45.23 0.45 C47.09 0.74, 48.95 1.19, 50.75 1.77 C52.55 2.36, 54.34 3.1, 56.04 3.96 C57.75 4.82, 59.42 5.83, 61 6.95 C62.58 8.08, 64.11 9.34, 65.53 10.7 C66.95 12.06, 68.29 13.55, 69.52 15.12 C70.75 16.69, 71.89 18.38, 72.91 20.12 C73.92 21.87, 74.83 23.72, 75.61 25.61 C76.39 27.5, 77.06 29.47, 77.59 31.47 C78.12 33.46, 78.52 35.52, 78.79 37.58 C79.06 39.63, 79.12 42.77, 79.19 43.81 C79.26 44.85, 79.26 42.77, 79.19 43.81" stroke="transparent" stroke-width="1" fill="none"></path></g><g stroke-linecap="round"><g transform="translate(609.6103731444509 60.39352242489713) rotate(0 6.335609134898732 -5.085125448028748)"><path d="M0 0 C0.71 -0.39, 2.88 -2.32, 4.29 -2.34 C5.69 -2.35, 7.09 -0.16, 8.41 -0.1 C9.73 -0.04, 11.51 -0.29, 12.21 -1.97 C12.92 -3.65, 12.58 -8.8, 12.65 -10.17 M0 0 C0.71 -0.39, 2.88 -2.32, 4.29 -2.34 C5.69 -2.35, 7.09 -0.16, 8.41 -0.1 C9.73 -0.04, 11.51 -0.29, 12.21 -1.97 C12.92 -3.65, 12.58 -8.8, 12.65 -10.17" stroke="#495057" stroke-width="1" fill="none"></path></g></g><mask></mask><g stroke-linecap="round"><g transform="translate(643.7501580906883 89.44594177973613) rotate(0 2.614487137528158 -7.285205172835958)"><path d="M0 0 C0.71 -0.5, 2.74 -2.79, 4.26 -3.01 C5.78 -3.23, 7.65 -0.74, 9.14 -1.34 C10.62 -1.93, 15 -4.4, 13.17 -6.59 C11.34 -8.77, 1.74 -13.64, -1.85 -14.44 C-5.44 -15.25, -7.29 -11.93, -8.38 -11.43 M0 0 C0.71 -0.5, 2.74 -2.79, 4.26 -3.01 C5.78 -3.23, 7.65 -0.74, 9.14 -1.34 C10.62 -1.93, 15 -4.4, 13.17 -6.59 C11.34 -8.77, 1.74 -13.64, -1.85 -14.44 C-5.44 -15.25, -7.29 -11.93, -8.38 -11.43" stroke="#495057" stroke-width="1" fill="none"></path></g></g><mask></mask><g stroke-linecap="round"><g transform="translate(586.5915927609549 66.99287273971731) rotate(0 26.725855238896656 7.1870886605131545)" fill-rule="evenodd"><path d="M0 0 L0.11 2.94 L39.14 25.66 L52.95 15.72 L53.45 11.24 L14.74 -11.29 L0 0" stroke="none" stroke-width="0" fill="#ced4da" fill-rule="evenodd"></path><path d="M0 0 C0.04 1.14, 0.09 2.29, 0.11 2.94 M0 0 C0.03 0.66, 0.05 1.33, 0.11 2.94 M0.11 2.94 C13.78 10.9, 27.45 18.86, 39.14 25.66 M0.11 2.94 C13.83 10.92, 27.54 18.91, 39.14 25.66 M39.14 25.66 C42.95 22.92, 46.77 20.17, 52.95 15.72 M39.14 25.66 C42.38 23.33, 45.63 20.99, 52.95 15.72 M52.95 15.72 C53.06 14.74, 53.17 13.77, 53.45 11.24 M52.95 15.72 C53.14 14.01, 53.33 12.29, 53.45 11.24 M53.45 11.24 C42.7 4.98, 31.95 -1.27, 14.74 -11.29 M53.45 11.24 C42.47 4.85, 31.48 -1.54, 14.74 -11.29 M14.74 -11.29 C11.58 -8.87, 8.41 -6.44, 0 0 M14.74 -11.29 C11.03 -8.44, 7.31 -5.6, 0 0 M0 0 C0 0, 0 0, 0 0 M0 0 C0 0, 0 0, 0 0" stroke="#495057" stroke-width="2" fill="none"></path></g></g><mask></mask><g stroke-linecap="round"><g transform="translate(587.1677270556556 67.53991262240379) rotate(0 26.36520403704253 11.218710673167152)"><path d="M0 0 C12.01 7.01, 24.01 14.01, 38.44 22.44 M0 0 C13.9 8.11, 27.79 16.22, 38.44 22.44 M38.44 22.44 C44.1 17.69, 49.75 12.95, 52.73 10.45 M38.44 22.44 C43.71 18.02, 48.97 13.6, 52.73 10.45" stroke="#495057" stroke-width="1" fill="none"></path></g></g><mask></mask><g stroke-linecap="round"><g transform="translate(625.7429211864783 93.12117091317941) rotate(0 -0.015662916919609415 -1.4976823036322457)"><path d="M0 0 C-0.01 -1.11, -0.02 -2.22, -0.03 -3 M0 0 C-0.01 -0.93, -0.02 -1.86, -0.03 -3" stroke="#495057" stroke-width="1" fill="none"></path></g></g><mask></mask><g stroke-linecap="round"><g transform="translate(600.737202962302 58.7039957498082) rotate(0 5.832768918170586 10.611107690412837)" fill-rule="evenodd"><path d="M0 0 L-10.46 8.17 L12.4 21.22 L22.12 12.51 L0 0" stroke="none" stroke-width="0" fill="#495057" fill-rule="evenodd"></path><path d="M0 0 C-3.9 3.05, -7.8 6.09, -10.46 8.17 M0 0 C-3.01 2.35, -6.02 4.7, -10.46 8.17 M-10.46 8.17 C-1.77 13.13, 6.92 18.09, 12.4 21.22 M-10.46 8.17 C-4.03 11.84, 2.4 15.51, 12.4 21.22 M12.4 21.22 C16.03 17.97, 19.65 14.72, 22.12 12.51 M12.4 21.22 C14.94 18.95, 17.48 16.67, 22.12 12.51 M22.12 12.51 C14.29 8.08, 6.46 3.65, 0 0 M22.12 12.51 C15.56 8.8, 9.01 5.09, 0 0 M0 0 C0 0, 0 0, 0 0 M0 0 C0 0, 0 0, 0 0" stroke="#495057" stroke-width="1" fill="none"></path></g></g><mask></mask><g stroke-linecap="round"><g transform="translate(624.2177137313793 72.08100714389457) rotate(0 0.4069587940120982 2.578481262354444)" fill-rule="evenodd"><path d="M0 0 L-3.28 3.01 L1.04 5.16 L4.09 2.31 L0 0" stroke="none" stroke-width="0" fill="#495057" fill-rule="evenodd"></path><path d="M0 0 C-0.85 0.78, -1.69 1.55, -3.28 3.01 M0 0 C-0.83 0.76, -1.66 1.52, -3.28 3.01 M-3.28 3.01 C-1.96 3.67, -0.64 4.32, 1.04 5.16 M-3.28 3.01 C-2.33 3.48, -1.37 3.96, 1.04 5.16 M1.04 5.16 C2.05 4.22, 3.06 3.28, 4.09 2.31 M1.04 5.16 C1.8 4.45, 2.57 3.74, 4.09 2.31 M4.09 2.31 C2.59 1.46, 1.08 0.61, 0 0 M4.09 2.31 C2.55 1.44, 1 0.56, 0 0 M0 0 C0 0, 0 0, 0 0 M0 0 C0 0, 0 0, 0 0" stroke="#495057" stroke-width="1" fill="none"></path></g></g><mask></mask><g stroke-linecap="round"><g transform="translate(629.8552976239971 75.10114137208257) rotate(0 -1.9084774475986706 6.135528242220289)" fill-rule="evenodd"><path d="M0 0 L-9.52 8.58 L-3.72 12.27 L5.71 3.72 L0 0" stroke="none" stroke-width="0" fill="#495057" fill-rule="evenodd"></path><path d="M0 0 C-2.05 1.85, -4.1 3.69, -9.52 8.58 M0 0 C-3.35 3.02, -6.69 6.03, -9.52 8.58 M-9.52 8.58 C-7.59 9.81, -5.66 11.04, -3.72 12.27 M-9.52 8.58 C-7.62 9.79, -5.72 11, -3.72 12.27 M-3.72 12.27 C-0.25 9.12, 3.23 5.97, 5.71 3.72 M-3.72 12.27 C-0.92 9.73, 1.88 7.19, 5.71 3.72 M5.71 3.72 C4.25 2.78, 2.8 1.83, 0 0 M5.71 3.72 C4.23 2.76, 2.76 1.8, 0 0 M0 0 C0 0, 0 0, 0 0 M0 0 C0 0, 0 0, 0 0" stroke="#495057" stroke-width="1" fill="none"></path></g></g><mask></mask><g stroke-linecap="round"><g transform="translate(634.5429181705495 94.21759999872029) rotate(0 5.162930950246846 -1.905766557851166)" fill-rule="evenodd"><path d="M0 0 L5.11 2.16 L10.33 -1.92 L10.19 -4.24 L5.99 -5.97 L0 0" stroke="none" stroke-width="0" fill="#ced4da" fill-rule="evenodd"></path><path d="M0 0 C1.54 0.65, 3.08 1.3, 5.11 2.16 M0 0 C1.26 0.53, 2.52 1.06, 5.11 2.16 M5.11 2.16 C6.21 1.3, 7.3 0.44, 10.33 -1.92 M5.11 2.16 C6.43 1.13, 7.74 0.1, 10.33 -1.92 M10.33 -1.92 C10.28 -2.61, 10.24 -3.29, 10.19 -4.24 M10.33 -1.92 C10.29 -2.44, 10.26 -2.96, 10.19 -4.24 M10.19 -4.24 C8.74 -4.84, 7.3 -5.43, 5.99 -5.97 M10.19 -4.24 C9.3 -4.61, 8.42 -4.97, 5.99 -5.97 M5.99 -5.97 C3.68 -3.66, 1.37 -1.36, 0 0 M5.99 -5.97 C3.9 -3.88, 1.81 -1.8, 0 0 M0 0 C0 0, 0 0, 0 0 M0 0 C0 0, 0 0, 0 0" stroke="#495057" stroke-width="2" fill="none"></path></g></g><mask></mask><g stroke-linecap="round"><g transform="translate(626.1205837268335 51.613355491280345) rotate(0 12.5297197094269 4.6694953095855)" fill-rule="evenodd"><path d="M0 0 L0.11 9.42 L12.82 15.94 L24.56 7.62 L25.06 -1.49 L13.58 -6.6 L0 0" stroke="none" stroke-width="0" fill="#ced4da" fill-rule="evenodd"></path><path d="M0 0 C0.04 3.3, 0.08 6.6, 0.11 9.42 M0 0 C0.04 3.31, 0.08 6.62, 0.11 9.42 M0.11 9.42 C3.62 11.22, 7.13 13.02, 12.82 15.94 M0.11 9.42 C3.1 10.95, 6.08 12.48, 12.82 15.94 M12.82 15.94 C15.38 14.12, 17.94 12.31, 24.56 7.62 M12.82 15.94 C17.31 12.76, 21.8 9.58, 24.56 7.62 M24.56 7.62 C24.7 5.09, 24.84 2.56, 25.06 -1.49 M24.56 7.62 C24.7 5.04, 24.84 2.45, 25.06 -1.49 M25.06 -1.49 C22.6 -2.58, 20.13 -3.68, 13.58 -6.6 M25.06 -1.49 C22.17 -2.77, 19.27 -4.06, 13.58 -6.6 M13.58 -6.6 C8.73 -4.24, 3.89 -1.89, 0 0 M13.58 -6.6 C8.62 -4.19, 3.67 -1.78, 0 0 M0 0 C0 0, 0 0, 0 0 M0 0 C0 0, 0 0, 0 0" stroke="#495057" stroke-width="2" fill="none"></path></g></g><mask></mask><g stroke-linecap="round"><g transform="translate(622.1741091629465 11.550447995407922) rotate(0 20.06309877077183 25.995496511056672)" fill-rule="evenodd"><path d="M0 0 C2.64 0.26, 9.72 -0.56, 15.81 1.57 C21.91 3.7, 32.53 8.24, 36.57 12.77 C40.61 17.31, 39.74 24.02, 40.04 28.79 C40.33 33.55, 39.91 37.56, 38.35 41.35 C36.79 45.14, 33.23 50.57, 30.66 51.53 C28.09 52.5, 27.47 52.33, 22.93 47.12 C18.38 41.92, 6.79 27.54, 3.38 20.3 C-0.03 13.07, 2.62 6.48, 2.47 3.71" stroke="none" stroke-width="0" fill="#ced4da" fill-rule="evenodd"></path><path d="M0 0 C2.64 0.26, 9.72 -0.56, 15.81 1.57 C21.91 3.7, 32.53 8.24, 36.57 12.77 C40.61 17.31, 39.74 24.02, 40.04 28.79 C40.33 33.55, 39.91 37.56, 38.35 41.35 C36.79 45.14, 33.23 50.57, 30.66 51.53 C28.09 52.5, 27.47 52.33, 22.93 47.12 C18.38 41.92, 6.79 27.54, 3.38 20.3 C-0.03 13.07, 2.62 6.48, 2.47 3.71 M0 0 C2.64 0.26, 9.72 -0.56, 15.81 1.57 C21.91 3.7, 32.53 8.24, 36.57 12.77 C40.61 17.31, 39.74 24.02, 40.04 28.79 C40.33 33.55, 39.91 37.56, 38.35 41.35 C36.79 45.14, 33.23 50.57, 30.66 51.53 C28.09 52.5, 27.47 52.33, 22.93 47.12 C18.38 41.92, 6.79 27.54, 3.38 20.3 C-0.03 13.07, 2.62 6.48, 2.47 3.71" stroke="#495057" stroke-width="2" fill="none"></path></g></g><mask></mask><g stroke-linecap="round"><g transform="translate(611.0011512964393 37.734345684534674) rotate(0 23.935218500353585 1.0837497832574172)" fill-rule="evenodd"><path d="M0 0 C0.72 2.29, -1.8 9.05, 4.31 13.76 C10.42 18.48, 29.64 27.33, 36.67 28.29 C43.7 29.25, 44.79 25.53, 46.49 19.51 C48.19 13.48, 48.32 -1.82, 46.87 -7.86 C45.42 -13.9, 43.36 -13.7, 37.77 -16.74 C32.18 -19.77, 19.34 -25.34, 13.34 -26.08 C7.35 -26.82, 4.03 -25.5, 1.8 -21.15 C-0.42 -16.81, 0.3 -3.53, 0 0" stroke="none" stroke-width="0" fill="#ced4da" fill-rule="evenodd"></path><path d="M0 0 C0.72 2.29, -1.8 9.05, 4.31 13.76 C10.42 18.48, 29.64 27.33, 36.67 28.29 C43.7 29.25, 44.79 25.53, 46.49 19.51 C48.19 13.48, 48.32 -1.82, 46.87 -7.86 C45.42 -13.9, 43.36 -13.7, 37.77 -16.74 C32.18 -19.77, 19.34 -25.34, 13.34 -26.08 C7.35 -26.82, 4.03 -25.5, 1.8 -21.15 C-0.42 -16.81, 0.3 -3.53, 0 0 M0 0 C0.72 2.29, -1.8 9.05, 4.31 13.76 C10.42 18.48, 29.64 27.33, 36.67 28.29 C43.7 29.25, 44.79 25.53, 46.49 19.51 C48.19 13.48, 48.32 -1.82, 46.87 -7.86 C45.42 -13.9, 43.36 -13.7, 37.77 -16.74 C32.18 -19.77, 19.34 -25.34, 13.34 -26.08 C7.35 -26.82, 4.03 -25.5, 1.8 -21.15 C-0.42 -16.81, 0.3 -3.53, 0 0" stroke="#495057" stroke-width="2" fill="none"></path></g></g><mask></mask><g stroke-linecap="round"><g transform="translate(614.1829694782591 37.28896773930228) rotate(0 20.429769424908045 0.9579109377232271)" fill-rule="evenodd"><path d="M0 0 C0.6 1.93, -1.26 7.63, 3.62 11.57 C8.51 15.5, 23.29 22.4, 29.29 23.59 C35.3 24.77, 37.9 23.46, 39.65 18.69 C41.39 13.91, 41.09 0.38, 39.77 -5.08 C38.46 -10.53, 36.5 -11.26, 31.74 -14.07 C26.98 -16.87, 16.25 -21.3, 11.21 -21.92 C6.17 -22.54, 3.38 -21.43, 1.52 -17.78 C-0.35 -14.12, 0.25 -2.96, 0 0" stroke="none" stroke-width="0" fill="#343a40" fill-rule="evenodd"></path><path d="M0 0 C0.6 1.93, -1.26 7.63, 3.62 11.57 C8.51 15.5, 23.29 22.4, 29.29 23.59 C35.3 24.77, 37.9 23.46, 39.65 18.69 C41.39 13.91, 41.09 0.38, 39.77 -5.08 C38.46 -10.53, 36.5 -11.26, 31.74 -14.07 C26.98 -16.87, 16.25 -21.3, 11.21 -21.92 C6.17 -22.54, 3.38 -21.43, 1.52 -17.78 C-0.35 -14.12, 0.25 -2.96, 0 0 M0 0 C0.6 1.93, -1.26 7.63, 3.62 11.57 C8.51 15.5, 23.29 22.4, 29.29 23.59 C35.3 24.77, 37.9 23.46, 39.65 18.69 C41.39 13.91, 41.09 0.38, 39.77 -5.08 C38.46 -10.53, 36.5 -11.26, 31.74 -14.07 C26.98 -16.87, 16.25 -21.3, 11.21 -21.92 C6.17 -22.54, 3.38 -21.43, 1.52 -17.78 C-0.35 -14.12, 0.25 -2.96, 0 0" stroke="#495057" stroke-width="2" fill="none"></path></g></g><mask></mask><g stroke-linecap="round"><g transform="translate(251.2530477072869 113.32319073693452) rotate(0 0 62.53741191900349)"><path d="M0 0 C0 20.85, 0 104.23, 0 125.07" stroke="#4dabf7" stroke-width="2.5" fill="none" stroke-dasharray="1.5 8"></path></g></g><mask></mask><g stroke-linecap="round"><g transform="translate(440.80722903585956 113.32319106372688) rotate(0 0 86.68249250213125)"><path d="M0 0 C0 28.89, 0 144.47, 0 173.36" stroke="#4dabf7" stroke-width="2.5" fill="none" stroke-dasharray="1.5 8"></path></g></g><mask></mask><g stroke-linecap="round"><g transform="translate(67.50988858772143 145.74819999860847) rotate(0 90.12810646802609 0)"><path d="M0 0 C30.04 0, 150.21 0, 180.26 0 M0 0 C30.04 0, 150.21 0, 180.26 0" stroke="#e03131" stroke-width="2" fill="none"></path></g><g transform="translate(67.50988858772143 145.74819999860847) rotate(0 90.12810646802609 0)"><path d="M180.26 0 L166.66 6.34 L166.66 -6.34 L180.26 0" stroke="none" stroke-width="0" fill="#e03131" fill-rule="evenodd"></path><path d="M180.26 0 C175.88 2.04, 171.51 4.08, 166.66 6.34 M180.26 0 C175.31 2.31, 170.37 4.61, 166.66 6.34 M166.66 6.34 C166.66 3.53, 166.66 0.72, 166.66 -6.34 M166.66 6.34 C166.66 1.97, 166.66 -2.4, 166.66 -6.34 M166.66 -6.34 C170.67 -4.47, 174.69 -2.6, 180.26 0 M166.66 -6.34 C171.31 -4.17, 175.97 -2, 180.26 0 M180.26 0 C180.26 0, 180.26 0, 180.26 0 M180.26 0 C180.26 0, 180.26 0, 180.26 0" stroke="#e03131" stroke-width="2" fill="none"></path></g></g><mask></mask><g transform="translate(141.30915171115885 122.51176199422571) rotate(0 14.008928298950195 9.599999999999909)"><text x="0" y="15.45" font-family="Cascadia, Segoe UI Emoji" font-size="16px" fill="#228be6" text-anchor="start" style="white-space: pre;" direction="ltr" dominant-baseline="alphabetic">UDP</text></g><g transform="translate(193.381172324438 149.03566192372045) rotate(0 18.21220172192443 7.488244208735523)"><text x="0" y="12.051393023433913" font-family="Cascadia, Segoe UI Emoji" font-size="12.480407014559391px" fill="#1971c2" text-anchor="start" style="white-space: pre;" direction="ltr" dominant-baseline="alphabetic">TTL=1</text></g><g transform="translate(243.96930969690584 156.35896068406555) rotate(89.99999999999994 18.258928298950195 7.488244208735523)"><text x="0" y="12.051393023433913" font-family="Cascadia, Segoe UI Emoji" font-size="12.480407014559391px" fill="#1971c2" text-anchor="start" style="white-space: pre;" direction="ltr" dominant-baseline="alphabetic">TTL=0</text></g><g stroke-linecap="round"><g transform="translate(248.6597623428679 194.0489630960824) rotate(0 -90.25430519275596 0)"><path d="M0 0 C-30.08 0, -150.42 0, -180.51 0 M0 0 C-30.08 0, -150.42 0, -180.51 0" stroke="#f08c00" stroke-width="2" fill="none"></path></g><g transform="translate(248.6597623428679 194.0489630960824) rotate(0 -90.25430519275596 0)"><path d="M-180.51 0 L-166.91 -6.34 L-166.91 6.34 L-180.51 0" stroke="none" stroke-width="0" fill="#f08c00" fill-rule="evenodd"></path><path d="M-180.51 0 C-175.68 -2.25, -170.85 -4.5, -166.91 -6.34 M-180.51 0 C-176.28 -1.97, -172.06 -3.94, -166.91 -6.34 M-166.91 -6.34 C-166.91 -1.32, -166.91 3.69, -166.91 6.34 M-166.91 -6.34 C-166.91 -2.06, -166.91 2.21, -166.91 6.34 M-166.91 6.34 C-172.26 3.85, -177.61 1.35, -180.51 0 M-166.91 6.34 C-171.26 4.31, -175.61 2.29, -180.51 0 M-180.51 0 C-180.51 0, -180.51 0, -180.51 0 M-180.51 0 C-180.51 0, -180.51 0, -180.51 0" stroke="#f08c00" stroke-width="2" fill="none"></path></g></g><mask></mask><g transform="translate(103.01377499552291 175.7085688273046) rotate(0 62.81735933508662 8.071369953610201)"><text x="0" y="12.989861019091475" font-family="Cascadia, Segoe UI Emoji" font-size="13.452283256017063px" fill="#f08c00" text-anchor="start" style="white-space: pre;" direction="ltr" dominant-baseline="alphabetic">ICMP Time Exceed</text></g><g transform="translate(10 229.17686905827804) rotate(0 23.348215103149414 9.599999999999909)"><text x="0" y="15.45" font-family="Cascadia, Segoe UI Emoji" font-size="16px" fill="#e03131" text-anchor="start" style="white-space: pre;" direction="ltr" dominant-baseline="alphabetic">HOP 2</text></g><g stroke-linecap="round"><g transform="translate(67.10352930715817 238.93679213549558) rotate(0 90.12810646802609 0)"><path d="M0 0 C30.04 0, 150.21 0, 180.26 0 M0 0 C30.04 0, 150.21 0, 180.26 0" stroke="#e03131" stroke-width="2" fill="none"></path></g><g transform="translate(67.10352930715817 238.93679213549558) rotate(0 90.12810646802609 0)"><path d="M180.26 0 L166.66 6.34 L166.66 -6.34 L180.26 0" stroke="none" stroke-width="0" fill="#e03131" fill-rule="evenodd"></path><path d="M180.26 0 C175.15 2.38, 170.05 4.76, 166.66 6.34 M180.26 0 C177.33 1.37, 174.4 2.73, 166.66 6.34 M166.66 6.34 C166.66 1.66, 166.66 -3.02, 166.66 -6.34 M166.66 6.34 C166.66 3.01, 166.66 -0.32, 166.66 -6.34 M166.66 -6.34 C171.34 -4.16, 176.01 -1.98, 180.26 0 M166.66 -6.34 C170.71 -4.45, 174.75 -2.57, 180.26 0 M180.26 0 C180.26 0, 180.26 0, 180.26 0 M180.26 0 C180.26 0, 180.26 0, 180.26 0" stroke="#e03131" stroke-width="2" fill="none"></path></g></g><mask></mask><g transform="translate(140.90279243059558 215.7003541311119) rotate(0 14.008928298950195 9.599999999999909)"><text x="0" y="15.45" font-family="Cascadia, Segoe UI Emoji" font-size="16px" fill="#228be6" text-anchor="start" style="white-space: pre;" direction="ltr" dominant-baseline="alphabetic">UDP</text></g><g transform="translate(192.97481304387475 242.2242540606071) rotate(0 18.258928298950195 7.488244208735523)"><text x="0" y="12.051393023433913" font-family="Cascadia, Segoe UI Emoji" font-size="12.480407014559391px" fill="#1971c2" text-anchor="start" style="white-space: pre;" direction="ltr" dominant-baseline="alphabetic">TTL=2</text></g><g stroke-linecap="round"><g transform="translate(437.84785747971364 287.23755523296904) rotate(0 -185.05153240145955 0)"><path d="M0 0 C-61.68 0, -308.42 0, -370.1 0 M0 0 C-61.68 0, -308.42 0, -370.1 0" stroke="#f08c00" stroke-width="2" fill="none"></path></g><g transform="translate(437.84785747971364 287.23755523296904) rotate(0 -185.05153240145955 0)"><path d="M-370.1 0 L-356.51 -6.34 L-356.51 6.34 L-370.1 0" stroke="none" stroke-width="0" fill="#f08c00" fill-rule="evenodd"></path><path d="M-370.1 0 C-366.69 -1.59, -363.27 -3.19, -356.51 -6.34 M-370.1 0 C-366.39 -1.73, -362.68 -3.46, -356.51 -6.34 M-356.51 -6.34 C-356.51 -1.88, -356.51 2.59, -356.51 6.34 M-356.51 -6.34 C-356.51 -1.29, -356.51 3.76, -356.51 6.34 M-356.51 6.34 C-359.81 4.8, -363.11 3.26, -370.1 0 M-356.51 6.34 C-360.8 4.34, -365.09 2.34, -370.1 0 M-370.1 0 C-370.1 0, -370.1 0, -370.1 0 M-370.1 0 C-370.1 0, -370.1 0, -370.1 0" stroke="#f08c00" stroke-width="2" fill="none"></path></g></g><mask></mask><g transform="translate(191.77601669884825 268.8971609641908) rotate(0 62.81735933508662 8.071369953610201)"><text x="0" y="12.989861019091475" font-family="Cascadia, Segoe UI Emoji" font-size="13.452283256017063px" fill="#f08c00" text-anchor="start" style="white-space: pre;" direction="ltr" dominant-baseline="alphabetic">ICMP Time Exceed</text></g><g stroke-linecap="round"><g transform="translate(256.1687166006486 238.93679226224504) rotate(0 90.12810646802609 0)"><path d="M0 0 C30.04 0, 150.21 0, 180.26 0 M0 0 C30.04 0, 150.21 0, 180.26 0" stroke="#e03131" stroke-width="2" fill="none"></path></g><g transform="translate(256.1687166006486 238.93679226224504) rotate(0 90.12810646802609 0)"><path d="M180.26 0 L166.66 6.34 L166.66 -6.34 L180.26 0" stroke="none" stroke-width="0" fill="#e03131" fill-rule="evenodd"></path><path d="M180.26 0 C176.4 1.8, 172.55 3.59, 166.66 6.34 M180.26 0 C176.6 1.71, 172.94 3.41, 166.66 6.34 M166.66 6.34 C166.66 3.04, 166.66 -0.27, 166.66 -6.34 M166.66 6.34 C166.66 2.12, 166.66 -2.1, 166.66 -6.34 M166.66 -6.34 C171.05 -4.29, 175.44 -2.24, 180.26 0 M166.66 -6.34 C171.19 -4.23, 175.73 -2.11, 180.26 0 M180.26 0 C180.26 0, 180.26 0, 180.26 0 M180.26 0 C180.26 0, 180.26 0, 180.26 0" stroke="#e03131" stroke-width="2" fill="none"></path></g></g><mask></mask><g transform="translate(332.02120972408557 215.70035425786136) rotate(0 14.008928298950195 9.599999999999909)"><text x="0" y="15.45" font-family="Cascadia, Segoe UI Emoji" font-size="16px" fill="#228be6" text-anchor="start" style="white-space: pre;" direction="ltr" dominant-baseline="alphabetic">UDP</text></g><g transform="translate(382.04000033736884 242.22425418735565) rotate(0 18.258928298950195 7.488244208735523)"><text x="0" y="12.051393023433913" font-family="Cascadia, Segoe UI Emoji" font-size="12.480407014559391px" fill="#1971c2" text-anchor="start" style="white-space: pre;" direction="ltr" dominant-baseline="alphabetic">TTL=1</text></g><g transform="translate(10.471276794049118 329.9996513995793) rotate(0 23.348215103149414 9.599999999999909)"><text x="0" y="15.45" font-family="Cascadia, Segoe UI Emoji" font-size="16px" fill="#e03131" text-anchor="start" style="white-space: pre;" direction="ltr" dominant-baseline="alphabetic">HOP 3</text></g><g stroke-linecap="round"><g transform="translate(67.57480610121092 339.75957447679684) rotate(0 90.12810646802609 0)"><path d="M0 0 C30.04 0, 150.21 0, 180.26 0 M0 0 C30.04 0, 150.21 0, 180.26 0" stroke="#e03131" stroke-width="2" fill="none"></path></g><g transform="translate(67.57480610121092 339.75957447679684) rotate(0 90.12810646802609 0)"><path d="M180.26 0 L166.66 6.34 L166.66 -6.34 L180.26 0" stroke="none" stroke-width="0" fill="#e03131" fill-rule="evenodd"></path><path d="M180.26 0 C174.85 2.52, 169.44 5.04, 166.66 6.34 M180.26 0 C175.99 1.99, 171.72 3.98, 166.66 6.34 M166.66 6.34 C166.66 3.44, 166.66 0.55, 166.66 -6.34 M166.66 6.34 C166.66 2.58, 166.66 -1.18, 166.66 -6.34 M166.66 -6.34 C169.72 -4.91, 172.78 -3.48, 180.26 0 M166.66 -6.34 C171.46 -4.1, 176.25 -1.87, 180.26 0 M180.26 0 C180.26 0, 180.26 0, 180.26 0 M180.26 0 C180.26 0, 180.26 0, 180.26 0" stroke="#e03131" stroke-width="2" fill="none"></path></g></g><mask></mask><g transform="translate(141.37406922464834 316.52313647241317) rotate(0 14.008928298950195 9.599999999999909)"><text x="0" y="15.45" font-family="Cascadia, Segoe UI Emoji" font-size="16px" fill="#228be6" text-anchor="start" style="white-space: pre;" direction="ltr" dominant-baseline="alphabetic">UDP</text></g><g transform="translate(193.44608983792386 343.0470364019084) rotate(0 18.258928298950195 7.488244208735523)"><text x="0" y="12.051393023433913" font-family="Cascadia, Segoe UI Emoji" font-size="12.480407014559391px" fill="#1971c2" text-anchor="start" style="white-space: pre;" direction="ltr" dominant-baseline="alphabetic">TTL=3</text></g><g stroke-linecap="round"><g transform="translate(256.6399933947014 339.75957460354675) rotate(0 90.12810646802609 0)"><path d="M0 0 C30.04 0, 150.21 0, 180.26 0 M0 0 C30.04 0, 150.21 0, 180.26 0" stroke="#e03131" stroke-width="2" fill="none"></path></g><g transform="translate(256.6399933947014 339.75957460354675) rotate(0 90.12810646802609 0)"><path d="M180.26 0 L166.66 6.34 L166.66 -6.34 L180.26 0" stroke="none" stroke-width="0" fill="#e03131" fill-rule="evenodd"></path><path d="M180.26 0 C176.62 1.7, 172.97 3.4, 166.66 6.34 M180.26 0 C176.93 1.55, 173.61 3.1, 166.66 6.34 M166.66 6.34 C166.66 3.67, 166.66 1, 166.66 -6.34 M166.66 6.34 C166.66 2.43, 166.66 -1.47, 166.66 -6.34 M166.66 -6.34 C170.6 -4.5, 174.54 -2.66, 180.26 0 M166.66 -6.34 C169.65 -4.95, 172.63 -3.55, 180.26 0 M180.26 0 C180.26 0, 180.26 0, 180.26 0 M180.26 0 C180.26 0, 180.26 0, 180.26 0" stroke="#e03131" stroke-width="2" fill="none"></path></g></g><mask></mask><g transform="translate(382.5112771314216 343.0470365286574) rotate(0 18.258928298950195 7.488244208735523)"><text x="0" y="12.051393023433913" font-family="Cascadia, Segoe UI Emoji" font-size="12.480407014559391px" fill="#1971c2" text-anchor="start" style="white-space: pre;" direction="ltr" dominant-baseline="alphabetic">TTL=2</text></g><g stroke-linecap="round"><g transform="translate(444.7005901952907 339.75957525946524) rotate(0 90.12810646802609 0)"><path d="M0 0 C30.04 0, 150.21 0, 180.26 0 M0 0 C30.04 0, 150.21 0, 180.26 0" stroke="#e03131" stroke-width="2" fill="none"></path></g><g transform="translate(444.7005901952907 339.75957525946524) rotate(0 90.12810646802609 0)"><path d="M180.26 0 L166.66 6.34 L166.66 -6.34 L180.26 0" stroke="none" stroke-width="0" fill="#e03131" fill-rule="evenodd"></path><path d="M180.26 0 C175.21 2.36, 170.15 4.71, 166.66 6.34 M180.26 0 C174.97 2.47, 169.68 4.93, 166.66 6.34 M166.66 6.34 C166.66 3.47, 166.66 0.6, 166.66 -6.34 M166.66 6.34 C166.66 3.49, 166.66 0.63, 166.66 -6.34 M166.66 -6.34 C170.94 -4.35, 175.21 -2.35, 180.26 0 M166.66 -6.34 C169.38 -5.07, 172.11 -3.8, 180.26 0 M180.26 0 C180.26 0, 180.26 0, 180.26 0 M180.26 0 C180.26 0, 180.26 0, 180.26 0" stroke="#e03131" stroke-width="2" fill="none"></path></g></g><mask></mask><g transform="translate(520.5530833187258 316.52313725508156) rotate(0 14.008928298950195 9.599999999999909)"><text x="0" y="15.45" font-family="Cascadia, Segoe UI Emoji" font-size="16px" fill="#228be6" text-anchor="start" style="white-space: pre;" direction="ltr" dominant-baseline="alphabetic">UDP</text></g><g transform="translate(570.5718739320109 343.04703718457586) rotate(0 18.258928298950195 7.488244208735523)"><text x="0" y="12.051393023433913" font-family="Cascadia, Segoe UI Emoji" font-size="12.480407014559391px" fill="#1971c2" text-anchor="start" style="white-space: pre;" direction="ltr" dominant-baseline="alphabetic">TTL=1</text></g><g stroke-linecap="round"><g transform="translate(625.252581478293 392.897832129845) rotate(0 -278.23317992650027 0)"><path d="M0 0 C-92.74 0, -463.72 0, -556.47 0 M0 0 C-92.74 0, -463.72 0, -556.47 0" stroke="#40c057" stroke-width="2" fill="none"></path></g><g transform="translate(625.252581478293 392.897832129845) rotate(0 -278.23317992650027 0)"><path d="M-556.47 0 L-542.87 -6.34 L-542.87 6.34 L-556.47 0" stroke="none" stroke-width="0" fill="#40c057" fill-rule="evenodd"></path><path d="M-556.47 0 C-551.53 -2.3, -546.59 -4.61, -542.87 -6.34 M-556.47 0 C-552.64 -1.79, -548.8 -3.57, -542.87 -6.34 M-542.87 -6.34 C-542.87 -2.5, -542.87 1.34, -542.87 6.34 M-542.87 -6.34 C-542.87 -1.4, -542.87 3.55, -542.87 6.34 M-542.87 6.34 C-547.11 4.36, -551.35 2.38, -556.47 0 M-542.87 6.34 C-548.16 3.87, -553.45 1.41, -556.47 0 M-556.47 0 C-556.47 0, -556.47 0, -556.47 0 M-556.47 0 C-556.47 0, -556.47 0, -556.47 0" stroke="#40c057" stroke-width="2" fill="none"></path></g></g><mask></mask><g stroke-linecap="round"><g transform="translate(628.8932093988478 113.32319077508146) rotate(0 0 140.46593848763973)"><path d="M0 0 C0 46.82, 0 234.11, 0 280.93" stroke="#4dabf7" stroke-width="2.5" fill="none" stroke-dasharray="1.5 8"></path></g></g><mask></mask><g transform="translate(250.2890665364721 371.83092880840877) rotate(0 109.75 8.071369953610201)"><text x="0" y="12.989861019091475" font-family="Cascadia, Segoe UI Emoji" font-size="13.452283256017063px" fill="#2f9e44" text-anchor="start" style="white-space: pre;" direction="ltr" dominant-baseline="alphabetic">ICMP Destination Unreachable</text></g><g transform="translate(433.7834851943935 251.6535820446643) rotate(89.99999999999994 18.258928298950195 7.488244208735523)"><text x="0" y="12.051393023433913" font-family="Cascadia, Segoe UI Emoji" font-size="12.480407014559391px" fill="#1971c2" text-anchor="start" style="white-space: pre;" direction="ltr" dominant-baseline="alphabetic">TTL=0</text></g><g transform="translate(625.169161554486 352.2677661882585) rotate(89.99999999999994 18.258928298950195 7.488244208735523)"><text x="0" y="12.051393023433913" font-family="Cascadia, Segoe UI Emoji" font-size="12.480407014559391px" fill="#1971c2" text-anchor="start" style="white-space: pre;" direction="ltr" dominant-baseline="alphabetic">TTL=0</text></g><g transform="translate(333.0104735674504 316.52313708088695) rotate(0 14.008928298950195 9.599999999999909)"><text x="0" y="15.45" font-family="Cascadia, Segoe UI Emoji" font-size="16px" fill="#228be6" text-anchor="start" style="white-space: pre;" direction="ltr" dominant-baseline="alphabetic">UDP</text></g></svg>